<svg version="1.1" baseProfile="full" xmlns="http://www.w3.org/2000/svg" width="300" height="300">
<g fill="#15377a" stroke="none" transform="translate(0.000000,300.000000) scale(0.100000,-0.100000)">
<path d="M 742 2966
c -5 -12 -13 -58 -16 -102
c -29 -354 -41 -450 -116 -966
c -11 -75 -20 -154 -20 -176
c 0 -38 -2 -41 -55 -67
c -70 -34 -127 -107 -162 -206
c -31 -89 -26 -150 17 -226
c 27 -47 112 -123 138 -123
c 6 0 13 -4 16 -9
c 7 -11 -96 -428 -119 -481
c -8 -19 -33 -109 -55 -200
c -22 -91 -49 -187 -60 -214
c -30 -74 -27 -112 12 -136
c 18 -11 47 -20 65 -20
c 37 0 113 31 132 53
c 7 9 19 58 27 109
c 15 100 82 320 100 325
c 5 2 21 -23 34 -54
c 31 -75 72 -143 86 -143
c 17 0 68 113 134 295
c 89 244 133 333 144 293
c 17 -63 96 -402 101 -433
c 10 -65 17 -72 62 -52
c 21 9 48 19 61 22
c 14 4 22 14 22 29
c 0 32 -116 376 -156 465
c -19 41 -46 89 -59 107
c -14 18 -25 35 -25 37
c 0 2 29 18 63 35
c 75 37 163 110 149 124
c -6 6 -63 -12 -149 -46
c -138 -55 -183 -65 -213 -46
c -21 13 -28 393 -8 417
c 10 13 27 14 95 9
c 60 -4 92 -2 116 8
c 41 17 70 49 65 73
c -3 16 -12 18 -70 15
l -66 -3
l -7 48
c -4 26 -22 95 -40 153
c -19 58 -43 168 -55 247
c -26 179 -137 795 -150 827
c -13 35 -26 39 -38 12
z
m 91 -644
c 38 -220 37 -233 -25 -213
c -19 6 -46 23 -59 37
c -28 29 -28 65 -3 244
c 16 111 29 149 45 133
c 4 -4 23 -95 42 -201
z
m -20 -358
c 57 -37 87 -97 112 -219
l 6 -30
l -83 -13
c -134 -22 -205 -62 -239 -136
c -26 -57 -24 -92 11 -186
c 32 -87 30 -108 -11 -130
c -16 -9 -26 -8 -46 5
c -34 23 -53 73 -53 143
c 0 82 24 144 80 205
c 66 73 77 99 90 216
c 20 185 39 205 133 145
z
m -17 -369
c 23 -35 17 -416 -7 -440
c -31 -31 -148 16 -123 49
c 5 7 24 32 42 56
l 32 43
l 0 153
c 0 149 2 160 32 163
c 4 1 15 -10 24 -24
z
m 194 -524
c 0 -14 -75 -146 -107 -187
c -16 -22 -47 -63 -68 -91
c -22 -29 -44 -53 -51 -53
c -26 0 -154 296 -139 320
c 3 4 30 3 62 -2
c 59 -10 178 -4 243 12
c 48 11 60 11 60 1
z
" />
<path d="M 1203 2443
c -8 -3 -13 -23 -13 -48
c 0 -52 -12 -61 -85 -66
l -49 -4
l -17 45
c -14 37 -21 45 -41 43
c -49 -6 -68 -14 -68 -31
c 1 -31 38 -184 48 -194
c 5 -5 28 -2 58 9
c 40 14 82 18 224 18
c 163 0 182 -2 269 -28
c 115 -35 227 -90 317 -158
c 97 -72 129 -103 196 -194
c 122 -163 185 -331 196 -525
l 7 -115
l 110 0
l 110 0
l 3 39
c 6 72 -2 86 -54 86
c -52 0 -58 9 -59 85
l 0 50
l 43 14
c 48 15 48 14 21 114
l -10 38
l -54 -6
l -55 -7
l -20 47
c -11 26 -20 52 -20 59
c 0 8 18 26 40 41
l 40 28
l -27 48
c -39 72 -46 76 -95 51
l -42 -21
l -33 37
c -49 55 -50 69 -12 108
l 33 34
l -52 52
l -52 52
l -35 -34
c -39 -38 -47 -36 -113 18
l -32 27
l 20 37
c 11 21 20 43 20 48
c 0 13 -89 70 -109 70
c -9 0 -26 -16 -39 -35
c -25 -40 -40 -42 -100 -15
l -43 20
l 6 53
l 7 54
l -66 17
c -36 9 -67 16 -69 16
c -3 0 -10 -20 -17 -45
c -7 -25 -16 -48 -20 -50
c -4 -2 -35 0 -69 6
l -61 11
l 0 42
c 0 23 -5 47 -12 54
c -12 12 -100 15 -125 5
z
" />
<path d="M 416 2091
l -48 -49
l 32 -41
l 32 -40
l -37 -50
c -20 -28 -40 -51 -43 -51
c -4 0 -22 9 -40 20
c -18 11 -38 20 -45 20
c -7 0 -27 -26 -45 -59
l -32 -58
l 41 -28
c 44 -31 44 -36 14 -109
l -16 -38
l -54 7
l -54 6
l -15 -52
c -23 -77 -22 -84 25 -98
c 48 -15 53 -25 44 -96
l -6 -54
l -52 -3
l -52 -3
l 0 -70
l 0 -70
l 50 -5
c 55 -6 62 -16 64 -95
c 1 -39 -1 -41 -41 -56
c -41 -14 -43 -16 -41 -51
c 1 -20 9 -53 17 -72
c 14 -34 15 -34 57 -25
c 23 6 47 8 53 6
c 6 -3 20 -28 30 -57
c 21 -59 22 -57 -43 -100
l -23 -15
l 36 -63
l 37 -62
l 57 29
c 31 16 64 37 74 47
c 25 29 33 90 16 117
c -34 51 -82 177 -99 261
c -24 113 -26 294 -4 403
c 32 158 114 325 220 448
c 45 52 54 68 64 126
c 17 100 17 101 -19 81
c -29 -17 -29 -17 -63 16
c -18 17 -35 32 -38 32
c -3 0 -27 -22 -53 -49
z
" />
<path d="M 993 1525
c -17 -7 -40 -26 -49 -41
l -18 -27
l 73 -66
l 74 -67
l -27 -21
c -15 -12 -32 -23 -38 -25
c -22 -8 3 -28 33 -28
c 58 0 123 50 117 91
c -2 13 -22 38 -48 57
c -62 47 -66 57 -36 93
c 15 17 24 35 20 40
c -8 13 -64 10 -101 -6
z
" />
<path d="M 1450 1538
c -1 -2 -2 -47 -3 -100
l -2 -98
l 28 0
c 16 0 38 5 50 12
c 22 12 21 12 -8 18
l -30 5
l -3 83
c -2 64 -6 82 -17 82
c -8 0 -15 -1 -15 -2
z
" />
<path d="M 1753 1480
c -14 -33 -31 -60 -37 -60
c -32 0 -48 54 -23 79
c 10 10 7 11 -14 6
c -16 -4 -30 -2 -34 4
c -10 18 -24 3 -18 -19
c 6 -22 -12 -50 -31 -50
c -7 0 -18 15 -24 34
c -13 35 -38 63 -48 53
c -3 -3 3 -32 14 -64
c 11 -32 23 -73 27 -90
c 9 -45 27 -41 53 12
c 12 25 26 45 32 45
c 5 0 19 -18 30 -40
c 12 -23 24 -38 29 -36
c 8 6 63 113 80 159
c 7 18 7 27 0 27
c -5 0 -21 -27 -36 -60
z
" />
<path d="M 1895 1531
c -4 -8 5 -28 24 -51
c 25 -32 31 -48 31 -89
c 0 -39 4 -51 15 -51
c 12 0 15 13 15 60
c 0 53 3 64 26 85
c 15 14 31 25 35 25
c 5 0 9 5 9 10
c 0 19 -34 10 -63 -17
l -28 -28
l -28 34
c -20 24 -30 30 -36 22
z
" />
<path d="M 1333 1518
c -22 -27 -93 -178 -84 -178
c 12 0 66 77 75 108
c 9 28 28 24 36 -6
c 5 -23 59 -96 65 -90
c 6 6 -63 172 -73 176
c -5 1 -14 -3 -19 -10
z
" />
<path d="M 1826 1508
c -8 -13 -25 -45 -37 -73
c -12 -27 -31 -60 -42 -72
c -18 -20 -18 -23 -4 -23
c 10 0 26 15 37 33
c 10 17 23 37 28 43
c 5 6 13 20 16 32
c 11 34 32 26 44 -16
c 7 -21 24 -49 38 -63
c 15 -13 24 -17 21 -9
c -3 8 -17 42 -30 75
c -13 33 -27 68 -30 78
c -9 23 -24 21 -41 -5
z
" />
<path d="M 2083 1518
c -32 -15 -29 -46 10 -86
c 31 -33 32 -34 12 -48
c -11 -8 -30 -17 -42 -21
c -24 -5 -32 -23 -10 -23
c 25 1 98 40 104 56
c 4 12 -4 26 -30 48
c -45 38 -46 52 -4 70
c 30 13 30 14 7 15
c -14 0 -35 -5 -47 -11
z
" />
<path d="M 1330 1410
c 0 -5 5 -10 10 -10
c 6 0 10 5 10 10
c 0 6 -4 10 -10 10
c -5 0 -10 -4 -10 -10
z
" />
<path d="M 1830 1410
c 0 -5 5 -10 10 -10
c 6 0 10 5 10 10
c 0 6 -4 10 -10 10
c -5 0 -10 -4 -10 -10
z
" />
<path d="M 1616 1129
c -2 -8 -7 -56 -11 -106
c -5 -77 -3 -93 9 -93
c 9 0 16 16 20 44
c 7 44 19 56 57 56
c 15 0 19 -7 19 -31
c 0 -38 16 -69 36 -69
c 13 0 15 7 8 38
c -10 48 -10 89 0 130
c 6 25 4 32 -7 32
c -8 0 -18 -15 -23 -32
c -9 -29 -14 -33 -44 -33
c -31 0 -35 3 -38 30
c -4 35 -19 55 -26 34
z
" />
<path d="M 2626 1129
c -16 -4 -44 -23 -63 -41
l -33 -32
l 0 33
c 0 48 -24 34 -28 -17
c -2 -23 -6 -42 -10 -42
c -4 0 -25 21 -48 47
c -25 28 -45 44 -52 39
c -7 -4 -12 -32 -12 -67
c 0 -65 -12 -99 -36 -99
c -28 0 -95 41 -106 65
c -18 41 3 63 86 90
c 13 4 16 9 9 16
c -16 16 -85 -6 -112 -35
c -23 -25 -25 -55 -7 -97
c 8 -19 -17 -32 -45 -24
c -16 6 -19 17 -19 86
c 0 62 -3 79 -14 79
c -11 0 -15 -19 -18 -84
c -2 -46 -2 -91 0 -100
c 5 -23 54 -21 84 4
c 25 19 25 19 64 0
c 21 -11 50 -20 65 -20
c 15 0 29 -6 32 -12
c 9 -25 30 9 38 63
c 5 28 11 54 14 57
c 7 8 45 -29 61 -60
c 17 -32 44 -37 44 -9
c 0 49 11 50 56 4
c 39 -39 49 -44 82 -41
c 34 3 37 6 40 37
c 2 19 11 41 20 48
c 15 11 10 12 -30 13
c -49 0 -72 -14 -37 -23
c 15 -4 20 -12 17 -28
c -5 -33 -19 -33 -61 2
c -42 35 -48 68 -17 99
c 11 11 34 23 50 27
c 29 5 39 17 23 26
c -5 2 -21 1 -37 -4
z
" />
<path d="M 1479 1105
c -57 -38 -64 -76 -24 -123
c 29 -35 78 -57 102 -47
c 16 6 15 8 -6 16
c -54 21 -81 49 -81 84
c 0 37 21 58 73 70
c 15 4 27 11 27 16
c 0 18 -56 8 -91 -16
z
" />
<path d="M 1888 1113
c -9 -10 -30 -47 -48 -83
c -18 -36 -39 -73 -48 -82
c -14 -16 -14 -18 1 -18
c 17 0 69 69 81 108
c 9 28 28 24 36 -6
c 7 -31 59 -94 71 -86
c 7 4 5 12 -4 22
c -8 10 -25 46 -37 82
c -29 80 -33 85 -52 63
z
" />
<path d="M 2000 1040
c 0 -49 -1 -93 -2 -97
c -5 -13 63 -15 78 -2
c 19 15 18 33 -1 25
c -36 -13 -45 3 -45 85
c 0 64 -3 79 -15 79
c -12 0 -15 -17 -15 -90
z
" />
<path d="M 2829 1118
c -40 -10 -73 -40 -83 -75
c -10 -31 57 -99 107 -108
c 48 -9 87 4 42 15
c -50 11 -95 40 -105 66
c -17 43 1 61 83 88
c 10 3 15 10 12 16
c -7 11 -7 11 -56 -2
z
" />
<path d="M 2267 1044
c -17 -17 -4 -25 36 -22
c 23 2 42 8 42 13
c 0 12 -67 19 -78 9
z
" />
<path d="M 2817 1043
c -17 -16 -4 -24 35 -21
c 55 4 64 28 11 28
c -22 0 -43 -3 -46 -7
z
" />
<path d="M 1880 1000
c 0 -5 5 -10 10 -10
c 6 0 10 5 10 10
c 0 6 -4 10 -10 10
c -5 0 -10 -4 -10 -10
z
" />
<path d="M 1397 753
c -4 -3 -7 -48 -7 -100
c 0 -85 2 -93 19 -93
c 17 0 19 7 18 44
c -3 59 8 66 41 27
l 27 -33
l 24 26
c 14 14 28 26 32 26
c 4 0 11 -20 15 -45
c 5 -35 10 -45 25 -45
c 17 0 18 3 8 21
c -6 12 -14 54 -18 93
c -8 91 -28 100 -59 26
c -11 -27 -25 -50 -29 -50
c -5 0 -21 25 -36 55
c -25 51 -43 65 -60 48
z
" />
<path d="M 1696 751
c -5 -7 2 -11 18 -11
c 26 0 66 -31 66 -50
c 0 -12 -60 -44 -61 -33
c -1 5 0 18 1 31
c 2 35 -19 26 -24 -10
c -14 -93 -14 -118 0 -118
c 8 0 17 13 21 30
c 7 38 19 38 60 -2
c 44 -42 54 -28 14 18
l -32 36
l 20 22
c 26 27 27 48 3 69
c -24 21 -77 33 -86 18
z
" />
<path d="M 2135 748
c -39 -21 -75 -62 -75 -85
c 0 -36 58 -93 103 -100
c 41 -6 53 11 14 21
c -41 10 -77 45 -77 75
c 0 32 21 54 73 76
c 20 8 37 17 37 20
c 0 9 -55 4 -75 -7
z
" />
<path d="M 2237 754
c -4 -4 -7 -49 -7 -101
l 0 -93
l 33 0
c 18 0 43 7 55 16
c 20 14 26 14 66 -1
c 77 -30 215 -1 224 47
c 2 9 -14 28 -37 44
c -22 16 -41 32 -41 36
c 0 4 14 14 30 23
c 43 22 37 38 -7 20
c -63 -27 -67 -45 -18 -88
c 19 -17 35 -34 35 -39
c 0 -19 -65 -40 -110 -36
c -125 12 -152 115 -37 144
c 34 8 30 30 -4 26
c -72 -11 -123 -67 -100 -110
c 20 -37 14 -54 -16 -50
c -27 3 -28 5 -33 82
c -5 73 -15 98 -33 80
z
" />
<path d="M 1638 738
c -1 -7 -2 -52 -2 -100
c -1 -64 2 -88 12 -88
c 9 0 12 27 12 100
c 0 60 -4 100 -10 100
c -5 0 -11 -6 -12 -12
z
" />
<path d="M 1947 732
c -9 -10 -28 -44 -43 -77
c -15 -33 -34 -68 -42 -78
c -8 -9 -12 -20 -9 -23
c 9 -10 53 43 76 92
c 12 24 25 44 29 44
c 5 0 14 -17 20 -38
c 11 -35 62 -98 62 -77
c 0 16 -65 175 -71 175
c -3 0 -13 -8 -22 -18
z
" />
<path d="M 2370 660
c 0 -5 20 -10 45 -10
c 25 0 45 5 45 10
c 0 6 -20 10 -45 10
c -25 0 -45 -4 -45 -10
z
" />
<path d="M 1945 630
c 3 -5 8 -10 11 -10
c 2 0 4 5 4 10
c 0 6 -5 10 -11 10
c -5 0 -7 -4 -4 -10
z
" />
<path d="M 996 376
c -60 -56 -46 -111 42 -158
c 42 -22 44 -67 6 -97
c -29 -23 -24 -41 11 -41
c 48 0 82 80 55 131
c -6 10 -28 28 -50 39
c -47 24 -60 58 -36 95
c 9 13 25 29 36 35
c 11 6 18 15 15 21
c -12 18 -44 8 -79 -25
z
" />
<path d="M 1173 350
c -8 -11 -19 -17 -28 -14
c -19 8 -19 -3 0 -22
c 8 -8 12 -20 9 -27
c -3 -9 8 -12 34 -12
c 31 0 38 3 35 16
c -3 9 0 20 6 23
c 6 4 11 12 11 17
c 0 6 -5 7 -11 3
c -7 -4 -19 3 -28 15
c -16 21 -16 21 -28 1
z
" />
<path d="M 1910 340
c 0 -5 9 -14 20 -20
c 13 -7 20 -21 20 -40
c 0 -24 -8 -35 -41 -55
c -39 -25 -40 -27 -37 -78
l 3 -52
l 38 -3
c 44 -4 46 2 12 34
c -14 13 -25 28 -25 35
c 0 6 21 30 46 54
c 43 39 46 46 40 75
c -3 18 -11 39 -17 47
c -13 15 -59 18 -59 3
z
" />
<path d="M 2040 330
c -16 -16 -20 -34 -21 -92
c -1 -40 0 -82 1 -93
c 5 -53 75 -75 104 -33
c 12 16 16 47 16 110
c 0 75 -3 91 -20 108
c -11 11 -29 20 -40 20
c -11 0 -29 -9 -40 -20
z
m 70 -110
c 0 -65 -20 -104 -42 -82
c -19 19 -18 150 2 162
c 24 15 40 -17 40 -80
z
" />
<path d="M 2201 331
c -25 -25 -35 -78 -28 -148
c 7 -63 28 -93 67 -93
c 39 0 60 30 67 93
c 10 99 -17 167 -67 167
c -11 0 -29 -9 -39 -19
z
m 59 -40
c 15 -29 12 -124 -4 -147
c -21 -28 -36 -8 -43 57
c -8 82 21 138 47 90
z
" />
<path d="M 2387 328
c 11 -13 23 -28 27 -35
c 10 -19 -15 -61 -44 -73
c -28 -12 -40 -34 -40 -80
c 0 -35 17 -50 57 -50
c 40 0 41 6 8 32
c -37 29 -32 61 15 92
c 35 23 40 31 40 65
c 0 43 -23 71 -60 71
l -23 0
l 20 -22
z
" />
<path d="M 1505 261
c -50 -21 -72 -74 -52 -124
c 17 -39 70 -68 90 -48
c 9 9 5 17 -15 34
c -29 24 -42 55 -30 74
c 4 7 24 19 45 28
c 42 17 47 30 15 39
c -27 7 -28 7 -53 -3
z
" />
<path d="M 1654 260
c -31 -12 -54 -49 -54 -86
c 0 -35 30 -80 60 -89
c 28 -9 60 12 60 39
c 0 13 9 31 20 41
c 26 24 25 47 -2 72
c -29 26 -57 34 -84 23
z
m 51 -70
c 0 -18 -6 -26 -21 -28
c -26 -4 -40 24 -23 45
c 18 21 44 11 44 -17
z
" />
<path d="M 1250 220
c -14 -33 -9 -115 8 -132
c 17 -17 32 1 32 38
c 0 38 15 74 30 74
c 5 0 22 -24 36 -52
c 33 -65 33 -66 44 -48
c 19 30 11 87 -16 119
c -22 27 -32 31 -74 31
c -44 0 -49 -3 -60 -30
z
" />
<path d="M 1166 224
c -12 -31 -6 -121 8 -133
c 12 -10 17 -8 25 8
c 12 22 14 83 5 119
c -7 25 -29 29 -38 6
z
" />
</g>
</svg>
