<?xml version="1.0" standalone="no"?>
<!DOCTYPE svg PUBLIC "-//W3C//DTD SVG 20010904//EN"
 "http://www.w3.org/TR/2001/REC-SVG-20010904/DTD/svg10.dtd">
<svg version="1.0" xmlns="http://www.w3.org/2000/svg"
 width="300.000000pt" height="300.000000pt" viewBox="0 0 300.000000 300.000000"
 preserveAspectRatio="xMidYMid meet">
<metadata>
Created by potrace 1.10, written by Peter Selinger 2001-2011
</metadata>
<g transform="translate(0.000000,300.000000) scale(0.100000,-0.100000)"
fill="#15377a" stroke="none">
<path d="M742 2966 c-5 -12 -13 -58 -16 -102 -29 -354 -41 -450 -116 -966 -11
-75 -20 -154 -20 -176 0 -38 -2 -41 -55 -67 -70 -34 -127 -107 -162 -206 -31
-89 -26 -150 17 -226 27 -47 112 -123 138 -123 6 0 13 -4 16 -9 7 -11 -96
-428 -119 -481 -8 -19 -33 -109 -55 -200 -22 -91 -49 -187 -60 -214 -30 -74
-27 -112 12 -136 18 -11 47 -20 65 -20 37 0 113 31 132 53 7 9 19 58 27 109
15 100 82 320 100 325 5 2 21 -23 34 -54 31 -75 72 -143 86 -143 17 0 68 113
134 295 89 244 133 333 144 293 17 -63 96 -402 101 -433 10 -65 17 -72 62 -52
21 9 48 19 61 22 14 4 22 14 22 29 0 32 -116 376 -156 465 -19 41 -46 89 -59
107 -14 18 -25 35 -25 37 0 2 29 18 63 35 75 37 163 110 149 124 -6 6 -63 -12
-149 -46 -138 -55 -183 -65 -213 -46 -21 13 -28 393 -8 417 10 13 27 14 95 9
60 -4 92 -2 116 8 41 17 70 49 65 73 -3 16 -12 18 -70 15 l-66 -3 -7 48 c-4
26 -22 95 -40 153 -19 58 -43 168 -55 247 -26 179 -137 795 -150 827 -13 35
-26 39 -38 12z m91 -644 c38 -220 37 -233 -25 -213 -19 6 -46 23 -59 37 -28
29 -28 65 -3 244 16 111 29 149 45 133 4 -4 23 -95 42 -201z m-20 -358 c57
-37 87 -97 112 -219 l6 -30 -83 -13 c-134 -22 -205 -62 -239 -136 -26 -57 -24
-92 11 -186 32 -87 30 -108 -11 -130 -16 -9 -26 -8 -46 5 -34 23 -53 73 -53
143 0 82 24 144 80 205 66 73 77 99 90 216 20 185 39 205 133 145z m-17 -369
c23 -35 17 -416 -7 -440 -31 -31 -148 16 -123 49 5 7 24 32 42 56 l32 43 0
153 c0 149 2 160 32 163 4 1 15 -10 24 -24z m194 -524 c0 -14 -75 -146 -107
-187 -16 -22 -47 -63 -68 -91 -22 -29 -44 -53 -51 -53 -26 0 -154 296 -139
320 3 4 30 3 62 -2 59 -10 178 -4 243 12 48 11 60 11 60 1z"/>
<path d="M1203 2443 c-8 -3 -13 -23 -13 -48 0 -52 -12 -61 -85 -66 l-49 -4
-17 45 c-14 37 -21 45 -41 43 -49 -6 -68 -14 -68 -31 1 -31 38 -184 48 -194 5
-5 28 -2 58 9 40 14 82 18 224 18 163 0 182 -2 269 -28 115 -35 227 -90 317
-158 97 -72 129 -103 196 -194 122 -163 185 -331 196 -525 l7 -115 110 0 110
0 3 39 c6 72 -2 86 -54 86 -52 0 -58 9 -59 85 l0 50 43 14 c48 15 48 14 21
114 l-10 38 -54 -6 -55 -7 -20 47 c-11 26 -20 52 -20 59 0 8 18 26 40 41 l40
28 -27 48 c-39 72 -46 76 -95 51 l-42 -21 -33 37 c-49 55 -50 69 -12 108 l33
34 -52 52 -52 52 -35 -34 c-39 -38 -47 -36 -113 18 l-32 27 20 37 c11 21 20
43 20 48 0 13 -89 70 -109 70 -9 0 -26 -16 -39 -35 -25 -40 -40 -42 -100 -15
l-43 20 6 53 7 54 -66 17 c-36 9 -67 16 -69 16 -3 0 -10 -20 -17 -45 -7 -25
-16 -48 -20 -50 -4 -2 -35 0 -69 6 l-61 11 0 42 c0 23 -5 47 -12 54 -12 12
-100 15 -125 5z"/>
<path d="M416 2091 l-48 -49 32 -41 32 -40 -37 -50 c-20 -28 -40 -51 -43 -51
-4 0 -22 9 -40 20 -18 11 -38 20 -45 20 -7 0 -27 -26 -45 -59 l-32 -58 41 -28
c44 -31 44 -36 14 -109 l-16 -38 -54 7 -54 6 -15 -52 c-23 -77 -22 -84 25 -98
48 -15 53 -25 44 -96 l-6 -54 -52 -3 -52 -3 0 -70 0 -70 50 -5 c55 -6 62 -16
64 -95 1 -39 -1 -41 -41 -56 -41 -14 -43 -16 -41 -51 1 -20 9 -53 17 -72 14
-34 15 -34 57 -25 23 6 47 8 53 6 6 -3 20 -28 30 -57 21 -59 22 -57 -43 -100
l-23 -15 36 -63 37 -62 57 29 c31 16 64 37 74 47 25 29 33 90 16 117 -34 51
-82 177 -99 261 -24 113 -26 294 -4 403 32 158 114 325 220 448 45 52 54 68
64 126 17 100 17 101 -19 81 -29 -17 -29 -17 -63 16 -18 17 -35 32 -38 32 -3
0 -27 -22 -53 -49z"/>
<path d="M993 1525 c-17 -7 -40 -26 -49 -41 l-18 -27 73 -66 74 -67 -27 -21
c-15 -12 -32 -23 -38 -25 -22 -8 3 -28 33 -28 58 0 123 50 117 91 -2 13 -22
38 -48 57 -62 47 -66 57 -36 93 15 17 24 35 20 40 -8 13 -64 10 -101 -6z"/>
<path d="M1450 1538 c-1 -2 -2 -47 -3 -100 l-2 -98 28 0 c16 0 38 5 50 12 22
12 21 12 -8 18 l-30 5 -3 83 c-2 64 -6 82 -17 82 -8 0 -15 -1 -15 -2z"/>
<path d="M1753 1480 c-14 -33 -31 -60 -37 -60 -32 0 -48 54 -23 79 10 10 7 11
-14 6 -16 -4 -30 -2 -34 4 -10 18 -24 3 -18 -19 6 -22 -12 -50 -31 -50 -7 0
-18 15 -24 34 -13 35 -38 63 -48 53 -3 -3 3 -32 14 -64 11 -32 23 -73 27 -90
9 -45 27 -41 53 12 12 25 26 45 32 45 5 0 19 -18 30 -40 12 -23 24 -38 29 -36
8 6 63 113 80 159 7 18 7 27 0 27 -5 0 -21 -27 -36 -60z"/>
<path d="M1895 1531 c-4 -8 5 -28 24 -51 25 -32 31 -48 31 -89 0 -39 4 -51 15
-51 12 0 15 13 15 60 0 53 3 64 26 85 15 14 31 25 35 25 5 0 9 5 9 10 0 19
-34 10 -63 -17 l-28 -28 -28 34 c-20 24 -30 30 -36 22z"/>
<path d="M1333 1518 c-22 -27 -93 -178 -84 -178 12 0 66 77 75 108 9 28 28 24
36 -6 5 -23 59 -96 65 -90 6 6 -63 172 -73 176 -5 1 -14 -3 -19 -10z"/>
<path d="M1826 1508 c-8 -13 -25 -45 -37 -73 -12 -27 -31 -60 -42 -72 -18 -20
-18 -23 -4 -23 10 0 26 15 37 33 10 17 23 37 28 43 5 6 13 20 16 32 11 34 32
26 44 -16 7 -21 24 -49 38 -63 15 -13 24 -17 21 -9 -3 8 -17 42 -30 75 -13 33
-27 68 -30 78 -9 23 -24 21 -41 -5z"/>
<path d="M2083 1518 c-32 -15 -29 -46 10 -86 31 -33 32 -34 12 -48 -11 -8 -30
-17 -42 -21 -24 -5 -32 -23 -10 -23 25 1 98 40 104 56 4 12 -4 26 -30 48 -45
38 -46 52 -4 70 30 13 30 14 7 15 -14 0 -35 -5 -47 -11z"/>
<path d="M1330 1410 c0 -5 5 -10 10 -10 6 0 10 5 10 10 0 6 -4 10 -10 10 -5 0
-10 -4 -10 -10z"/>
<path d="M1830 1410 c0 -5 5 -10 10 -10 6 0 10 5 10 10 0 6 -4 10 -10 10 -5 0
-10 -4 -10 -10z"/>
<path d="M1616 1129 c-2 -8 -7 -56 -11 -106 -5 -77 -3 -93 9 -93 9 0 16 16 20
44 7 44 19 56 57 56 15 0 19 -7 19 -31 0 -38 16 -69 36 -69 13 0 15 7 8 38
-10 48 -10 89 0 130 6 25 4 32 -7 32 -8 0 -18 -15 -23 -32 -9 -29 -14 -33 -44
-33 -31 0 -35 3 -38 30 -4 35 -19 55 -26 34z"/>
<path d="M2626 1129 c-16 -4 -44 -23 -63 -41 l-33 -32 0 33 c0 48 -24 34 -28
-17 -2 -23 -6 -42 -10 -42 -4 0 -25 21 -48 47 -25 28 -45 44 -52 39 -7 -4 -12
-32 -12 -67 0 -65 -12 -99 -36 -99 -28 0 -95 41 -106 65 -18 41 3 63 86 90 13
4 16 9 9 16 -16 16 -85 -6 -112 -35 -23 -25 -25 -55 -7 -97 8 -19 -17 -32 -45
-24 -16 6 -19 17 -19 86 0 62 -3 79 -14 79 -11 0 -15 -19 -18 -84 -2 -46 -2
-91 0 -100 5 -23 54 -21 84 4 25 19 25 19 64 0 21 -11 50 -20 65 -20 15 0 29
-6 32 -12 9 -25 30 9 38 63 5 28 11 54 14 57 7 8 45 -29 61 -60 17 -32 44 -37
44 -9 0 49 11 50 56 4 39 -39 49 -44 82 -41 34 3 37 6 40 37 2 19 11 41 20 48
15 11 10 12 -30 13 -49 0 -72 -14 -37 -23 15 -4 20 -12 17 -28 -5 -33 -19 -33
-61 2 -42 35 -48 68 -17 99 11 11 34 23 50 27 29 5 39 17 23 26 -5 2 -21 1
-37 -4z"/>
<path d="M1479 1105 c-57 -38 -64 -76 -24 -123 29 -35 78 -57 102 -47 16 6 15
8 -6 16 -54 21 -81 49 -81 84 0 37 21 58 73 70 15 4 27 11 27 16 0 18 -56 8
-91 -16z"/>
<path d="M1888 1113 c-9 -10 -30 -47 -48 -83 -18 -36 -39 -73 -48 -82 -14 -16
-14 -18 1 -18 17 0 69 69 81 108 9 28 28 24 36 -6 7 -31 59 -94 71 -86 7 4 5
12 -4 22 -8 10 -25 46 -37 82 -29 80 -33 85 -52 63z"/>
<path d="M2000 1040 c0 -49 -1 -93 -2 -97 -5 -13 63 -15 78 -2 19 15 18 33 -1
25 -36 -13 -45 3 -45 85 0 64 -3 79 -15 79 -12 0 -15 -17 -15 -90z"/>
<path d="M2829 1118 c-40 -10 -73 -40 -83 -75 -10 -31 57 -99 107 -108 48 -9
87 4 42 15 -50 11 -95 40 -105 66 -17 43 1 61 83 88 10 3 15 10 12 16 -7 11
-7 11 -56 -2z"/>
<path d="M2267 1044 c-17 -17 -4 -25 36 -22 23 2 42 8 42 13 0 12 -67 19 -78
9z"/>
<path d="M2817 1043 c-17 -16 -4 -24 35 -21 55 4 64 28 11 28 -22 0 -43 -3
-46 -7z"/>
<path d="M1880 1000 c0 -5 5 -10 10 -10 6 0 10 5 10 10 0 6 -4 10 -10 10 -5 0
-10 -4 -10 -10z"/>
<path d="M1397 753 c-4 -3 -7 -48 -7 -100 0 -85 2 -93 19 -93 17 0 19 7 18 44
-3 59 8 66 41 27 l27 -33 24 26 c14 14 28 26 32 26 4 0 11 -20 15 -45 5 -35
10 -45 25 -45 17 0 18 3 8 21 -6 12 -14 54 -18 93 -8 91 -28 100 -59 26 -11
-27 -25 -50 -29 -50 -5 0 -21 25 -36 55 -25 51 -43 65 -60 48z"/>
<path d="M1696 751 c-5 -7 2 -11 18 -11 26 0 66 -31 66 -50 0 -12 -60 -44 -61
-33 -1 5 0 18 1 31 2 35 -19 26 -24 -10 -14 -93 -14 -118 0 -118 8 0 17 13 21
30 7 38 19 38 60 -2 44 -42 54 -28 14 18 l-32 36 20 22 c26 27 27 48 3 69 -24
21 -77 33 -86 18z"/>
<path d="M2135 748 c-39 -21 -75 -62 -75 -85 0 -36 58 -93 103 -100 41 -6 53
11 14 21 -41 10 -77 45 -77 75 0 32 21 54 73 76 20 8 37 17 37 20 0 9 -55 4
-75 -7z"/>
<path d="M2237 754 c-4 -4 -7 -49 -7 -101 l0 -93 33 0 c18 0 43 7 55 16 20 14
26 14 66 -1 77 -30 215 -1 224 47 2 9 -14 28 -37 44 -22 16 -41 32 -41 36 0 4
14 14 30 23 43 22 37 38 -7 20 -63 -27 -67 -45 -18 -88 19 -17 35 -34 35 -39
0 -19 -65 -40 -110 -36 -125 12 -152 115 -37 144 34 8 30 30 -4 26 -72 -11
-123 -67 -100 -110 20 -37 14 -54 -16 -50 -27 3 -28 5 -33 82 -5 73 -15 98
-33 80z"/>
<path d="M1638 738 c-1 -7 -2 -52 -2 -100 -1 -64 2 -88 12 -88 9 0 12 27 12
100 0 60 -4 100 -10 100 -5 0 -11 -6 -12 -12z"/>
<path d="M1947 732 c-9 -10 -28 -44 -43 -77 -15 -33 -34 -68 -42 -78 -8 -9
-12 -20 -9 -23 9 -10 53 43 76 92 12 24 25 44 29 44 5 0 14 -17 20 -38 11 -35
62 -98 62 -77 0 16 -65 175 -71 175 -3 0 -13 -8 -22 -18z"/>
<path d="M2370 660 c0 -5 20 -10 45 -10 25 0 45 5 45 10 0 6 -20 10 -45 10
-25 0 -45 -4 -45 -10z"/>
<path d="M1945 630 c3 -5 8 -10 11 -10 2 0 4 5 4 10 0 6 -5 10 -11 10 -5 0 -7
-4 -4 -10z"/>
<path d="M996 376 c-60 -56 -46 -111 42 -158 42 -22 44 -67 6 -97 -29 -23 -24
-41 11 -41 48 0 82 80 55 131 -6 10 -28 28 -50 39 -47 24 -60 58 -36 95 9 13
25 29 36 35 11 6 18 15 15 21 -12 18 -44 8 -79 -25z"/>
<path d="M1173 350 c-8 -11 -19 -17 -28 -14 -19 8 -19 -3 0 -22 8 -8 12 -20 9
-27 -3 -9 8 -12 34 -12 31 0 38 3 35 16 -3 9 0 20 6 23 6 4 11 12 11 17 0 6
-5 7 -11 3 -7 -4 -19 3 -28 15 -16 21 -16 21 -28 1z"/>
<path d="M1910 340 c0 -5 9 -14 20 -20 13 -7 20 -21 20 -40 0 -24 -8 -35 -41
-55 -39 -25 -40 -27 -37 -78 l3 -52 38 -3 c44 -4 46 2 12 34 -14 13 -25 28
-25 35 0 6 21 30 46 54 43 39 46 46 40 75 -3 18 -11 39 -17 47 -13 15 -59 18
-59 3z"/>
<path d="M2040 330 c-16 -16 -20 -34 -21 -92 -1 -40 0 -82 1 -93 5 -53 75 -75
104 -33 12 16 16 47 16 110 0 75 -3 91 -20 108 -11 11 -29 20 -40 20 -11 0
-29 -9 -40 -20z m70 -110 c0 -65 -20 -104 -42 -82 -19 19 -18 150 2 162 24 15
40 -17 40 -80z"/>
<path d="M2201 331 c-25 -25 -35 -78 -28 -148 7 -63 28 -93 67 -93 39 0 60 30
67 93 10 99 -17 167 -67 167 -11 0 -29 -9 -39 -19z m59 -40 c15 -29 12 -124
-4 -147 -21 -28 -36 -8 -43 57 -8 82 21 138 47 90z"/>
<path d="M2387 328 c11 -13 23 -28 27 -35 10 -19 -15 -61 -44 -73 -28 -12 -40
-34 -40 -80 0 -35 17 -50 57 -50 40 0 41 6 8 32 -37 29 -32 61 15 92 35 23 40
31 40 65 0 43 -23 71 -60 71 l-23 0 20 -22z"/>
<path d="M1505 261 c-50 -21 -72 -74 -52 -124 17 -39 70 -68 90 -48 9 9 5 17
-15 34 -29 24 -42 55 -30 74 4 7 24 19 45 28 42 17 47 30 15 39 -27 7 -28 7
-53 -3z"/>
<path d="M1654 260 c-31 -12 -54 -49 -54 -86 0 -35 30 -80 60 -89 28 -9 60 12
60 39 0 13 9 31 20 41 26 24 25 47 -2 72 -29 26 -57 34 -84 23z m51 -70 c0
-18 -6 -26 -21 -28 -26 -4 -40 24 -23 45 18 21 44 11 44 -17z"/>
<path d="M1250 220 c-14 -33 -9 -115 8 -132 17 -17 32 1 32 38 0 38 15 74 30
74 5 0 22 -24 36 -52 33 -65 33 -66 44 -48 19 30 11 87 -16 119 -22 27 -32 31
-74 31 -44 0 -49 -3 -60 -30z"/>
<path d="M1166 224 c-12 -31 -6 -121 8 -133 12 -10 17 -8 25 8 12 22 14 83 5
119 -7 25 -29 29 -38 6z"/>
</g>
</svg>
